<svg xmlns="http://www.w3.org/2000/svg" width="54" height="54" style=""><rect id="backgroundrect" width="100%" height="100%" x="0" y="0" fill="none" stroke="none"/>

 <g style="">
  <title>background</title>
  <rect fill="none" id="canvas_background" height="54" width="54" y="-1" x="-1"/>
 </g>
 <g style="" class="currentLayer">
  <title>Layer 1</title>
  <path stroke="null" id="svg_1" d="m46.584564,26.160516 c-1.189229,-0.455871 -2.804598,-0.738313 -4.524024,-0.8175950000000001 c3.0771290000000002,-1.303196 4.801511,-4.216807 3.840218,-6.506072 c-0.9612930000000001,-2.299175 -4.266358,-3.11677 -7.358352,-1.823484 c-0.792819,0.32703800000000005 -1.719426,0.8621910000000002 -2.636124,1.511311 c1.5261770000000001,-1.6302340000000002 2.769912,-3.468584 3.344706,-4.97494 c1.536087,-3.998781 -0.465781,-8.49803 -4.464563,-10.034117 c-3.998781,-1.536087 -8.502985,0.470736 -10.034117,4.469518 c-0.307217,0.787864 -0.535153,1.778888 -0.6738960000000002,2.854149 c-1.4270740000000002,-2.621258 -4.053288,-4.013647 -6.169124,-3.131635 c-2.299175,0.9612930000000001 -3.11677,4.266358 -1.818529,7.358352 c0.08919200000000004,0.20811500000000002 0.19325000000000003,0.431095 0.30226200000000003,0.6540760000000001 c-0.991024,-0.7036270000000001 -1.977093,-1.268511 -2.844239,-1.6054590000000002 c-3.998781,-1.536087 -8.49803,0.470736 -10.034117,4.464563 c-1.536087,4.003736 0.470736,8.49803 4.464563,10.034117 c0.886966,0.3369480000000001 2.011778,0.5747940000000001 3.240648,0.718492 c-3.027578,1.318062 -4.707363,4.192031 -3.760936,6.466431 c0.9612930000000001,2.299175 4.266358,3.11677 7.358352,1.823484 c0.05450600000000001,-0.024776000000000003 0.104058,-0.04955100000000001 0.15856400000000004,-0.074327 c-0.7531780000000001,1.03562 -1.342837,2.06133 -1.6946510000000004,2.968117 c-1.536087,4.003736 0.470736,8.502985 4.464563,10.039072 c3.998781,1.531132 8.49803,-0.470736 10.034117,-4.464563 c0.5054219999999999,-1.303196 0.792819,-3.121725 0.837415,-5.034401 c0.09414700000000002,0.29235200000000006 0.19325000000000003,0.5698390000000001 0.29730700000000004,0.8175950000000001 c1.2932860000000002,3.09695 4.216807,4.831241 6.515982,3.869948 c2.299175,-0.9612930000000001 3.11677,-4.261403 1.823484,-7.353397 c-0.004955000000000001,-0.009910000000000002 -0.009910000000000002,-0.024776000000000003 -0.01982,-0.03468600000000001 c1.288331,1.040575 2.626213,1.86808 3.770846,2.309086 c3.998781,1.531132 8.502985,-0.470736 10.039072,-4.464563 c1.536087,-3.998781 -0.465781,-8.49803 -4.459607,-10.039072 zm-7.591243,-8.0818 c2.299175,-0.9612930000000001 4.756915,-0.35181300000000004 5.470452,1.352748 c0.713537,1.7095159999999998 -0.5747940000000001,3.884814 -2.878924,4.851062 c-1.6847410000000003,0.7036270000000001 -5.257382,1.318062 -7.323666,0.921652 c-0.08919200000000004,-0.307217 -0.18829500000000005,-0.60948 -0.32703800000000005,-0.906787 c-0.23784600000000003,-0.525243 -0.535153,-1.010844 -0.8721010000000001,-1.45185 c1.075261,-1.783843 4.177166,-4.033467 5.931278,-4.766825 zm-12.382843,-9.380041 c1.144633,-2.973072 4.489338,-4.464563 7.467365,-3.324885 c2.973072,1.144633 4.459607,4.489338 3.324885,7.46241 c-0.951383,2.4676489999999998 -4.553755,6.882661000000001 -7.457455,7.66557 c-0.7531780000000001,-0.29235200000000006 -1.560863,-0.44596100000000005 -2.383412,-0.475691 c-2.219893,-2.001868 -1.987003,-8.621908 -0.951383,-11.327403 zm-8.09171,0.45091600000000004 c1.714471,-0.713537 3.8897690000000003,0.5747940000000001 4.851062,2.878924 c0.19325000000000003,0.470736 0.38154400000000005,1.080216 0.545063,1.7640230000000001 c0.024776000000000003,1.372568 0.18829500000000005,2.755046 0.5054219999999999,4.013647 c0,1.501401 -0.26757600000000004,2.740181 -1.000934,3.047398 c-1.7095159999999998,0.718492 -5.2871120000000005,-3.92941 -6.253361,-6.23354 s-0.356769,-4.756915 1.352748,-5.470452 zm-9.821047,17.605539 c-2.973072,-1.139677 -4.464563,-4.489338 -3.3199300000000003,-7.46241 c1.139677,-2.973072 4.489338,-4.464563 7.46241,-3.3199300000000003 c2.8888350000000003,1.104992 8.423703,5.847041 7.720076,8.844888000000001 c-0.04459600000000001,0.13378800000000002 -0.09414700000000002,0.26757600000000004 -0.13378800000000002,0.40632000000000007 c-1.313107,2.834328 -8.795337,2.6559440000000003 -11.728768,1.531132 zm17.233905,18.621339 c-1.139677,2.973072 -4.489338,4.459607 -7.467365,3.3199300000000003 c-2.973072,-1.139677 -4.464563,-4.489338 -3.324885,-7.46241 c1.070306,-2.789732 5.544779,-8.0818 8.547581,-7.789448 c0.40632000000000007,0.24280100000000002 0.837415,0.436051 1.278421,0.5896590000000002 c2.229804,2.006823 2.006823,8.621908 0.9662480000000001,11.342268 zm-3.587506,-15.915844 c-1.2239140000000002,-2.760002 0.014865000000000001,-6.005605 2.774867,-7.229519 c2.760002,-1.2288700000000001 6.005605,0.009910000000000002 7.234474,2.774867 c1.184274,2.670809 0.04459600000000001,5.777669 -2.537021,7.090776 l-0.004955000000000001,0 c-0.014865000000000001,0.004955000000000001 -0.024776000000000003,0.01982 -0.04459600000000001,0.029731000000000004 c-0.06937200000000002,0.029731000000000004 -0.123878,0.07928200000000002 -0.19325000000000003,0.10901300000000001 c-2.760002,1.233825 -6.005605,-0.014865000000000001 -7.229519,-2.774867 zm12.491856,14.855448 c-1.7095159999999998,0.7085819999999999 -3.879858,-0.5797490000000002 -4.846107,-2.8838790000000003 c-0.6887620000000001,-1.650055 -1.2932860000000002,-5.103773 -0.946428,-7.189878 c0.42118500000000003,-0.09910200000000004 0.837415,-0.23784600000000003 1.243735,-0.411275 c0.490557,-0.21802500000000002 0.936518,-0.48560200000000003 1.347792,-0.787864 c1.749157,1.174363 3.855083,4.107794 4.55871,5.79749 c0.9612930000000001,2.299175 0.35181300000000004,4.75196 -1.3577029999999999,5.475407 zm14.354981,-8.834978 c-1.144633,2.973072 -4.489338,4.464563 -7.46241,3.324885 c-2.869014,-1.104992 -8.374152,-5.8074 -7.729986,-8.810202 c0.074327,-0.18333900000000003 0.14369800000000002,-0.36667900000000003 0.20316,-0.554973 c1.4568050000000001,-2.725316 8.775516,-2.537021 11.669306,-1.4270740000000002 c2.968117,1.144633 4.464563,4.499248 3.3199300000000003,7.467365 z" class="" fill="#ffffff" fill-opacity="1"/>
 </g>
</svg>